<svg width="21" height="24" viewBox="0 0 21 24" fill="none" xmlns="http://www.w3.org/2000/svg">
<path d="M0.999756 22.1111H19.9998" stroke="white" stroke-width="2" stroke-linecap="round" stroke-linejoin="round"/>
<path d="M3.74418 7.73434H2.05531C1.47476 7.73434 0.999756 8.20934 0.999756 8.78989V17.8888C0.999756 18.4694 1.47476 18.9444 2.05531 18.9444H3.74418C4.32473 18.9444 4.79973 18.4694 4.79973 17.8888V8.78989C4.79973 8.20934 4.32473 7.73434 3.74418 7.73434Z" stroke="white" stroke-width="2" stroke-linecap="round" stroke-linejoin="round"/>
<path d="M11.3441 4.36716H9.65529C9.07473 4.36716 8.59973 4.84216 8.59973 5.42271V17.8888C8.59973 18.4693 9.07473 18.9443 9.65529 18.9443H11.3441C11.9246 18.9443 12.3996 18.4693 12.3996 17.8888V5.42271C12.3996 4.84216 11.9246 4.36716 11.3441 4.36716Z" stroke="white" stroke-width="2" stroke-linecap="round" stroke-linejoin="round"/>
<path d="M18.944 1H17.2551C16.6746 1 16.1996 1.475 16.1996 2.05556V17.8889C16.1996 18.4694 16.6746 18.9444 17.2551 18.9444H18.944C19.5246 18.9444 19.9996 18.4694 19.9996 17.8889V2.05556C19.9996 1.475 19.5246 1 18.944 1Z" stroke="white" stroke-width="2" stroke-linecap="round" stroke-linejoin="round"/>
</svg>
