<svg width="25" height="25" viewBox="0 0 20 20" fill="none" xmlns="http://www.w3.org/2000/svg">
<path d="M19.3021 20H3.48813C1.56255 20 -0.000244141 18.4372 -0.000244141 16.5116V0.697674C-0.000244141 0.316279 0.316035 0 0.69743 0C1.07883 0 1.3951 0.316279 1.3951 0.697674V16.5116C1.3951 17.6651 2.33464 18.6047 3.48813 18.6047H19.3021C19.6835 18.6047 19.9998 18.9209 19.9998 19.3023C19.9998 19.6837 19.6835 20 19.3021 20Z" fill="white"/>
<path d="M3.48791 15.3486C3.32977 15.3486 3.16233 15.2928 3.0321 15.1812C2.74373 14.93 2.70652 14.4928 2.95768 14.1952L7.22745 9.20911C7.69257 8.66957 8.36231 8.34399 9.06929 8.31609C9.77627 8.29748 10.4739 8.55795 10.9763 9.06027L11.86 9.94399C12.0925 10.1766 12.3902 10.2882 12.7251 10.2882C13.0507 10.2789 13.3484 10.13 13.5623 9.87888L17.8321 4.89285C18.0832 4.60448 18.5205 4.56727 18.8181 4.81843C19.1065 5.06959 19.1437 5.5068 18.8925 5.80448L14.6228 10.7905C14.1577 11.33 13.4879 11.6556 12.7809 11.6835C12.0646 11.7021 11.3763 11.4417 10.8739 10.9393L9.99952 10.0556C9.76697 9.82306 9.45999 9.70213 9.13441 9.71143C8.80883 9.72074 8.51115 9.86957 8.2972 10.1207L4.02745 15.1068C3.87861 15.2649 3.68326 15.3486 3.48791 15.3486Z" fill="white"/>
</svg>
