<svg width="30" height="30" viewBox="0 0 60 60" fill="none" xmlns="http://www.w3.org/2000/svg">
<path d="M32.2498 42.0653H34.1997C36.1497 42.0653 37.7697 40.3253 37.7697 38.2253C37.7697 35.6153 36.8397 35.1053 35.3097 34.5653L32.2798 33.5154V42.0653H32.2498Z" fill="#0B8A2F"/>
<path d="M29.91 5.03495e-05C13.3501 0.0600499 -0.059799 13.5299 0.000200558 30.09C0.0602001 46.6498 13.5301 60.0597 30.09 59.9997C46.6499 59.9397 60.0598 46.4698 59.9998 29.91C59.9398 13.3499 46.4699 -0.0299494 29.91 5.03495e-05ZM36.78 30.3C39.12 31.1099 42.2699 32.8499 42.2699 38.2199C42.2699 42.8399 38.64 46.5598 34.2 46.5598H32.25V48.2998C32.25 49.5298 31.23 50.5498 30 50.5498C28.7701 50.5498 27.7501 49.5298 27.7501 48.2998V46.5598H26.6701C21.75 46.5598 17.7601 42.4199 17.7601 37.3199C17.7601 36.0899 18.78 35.0699 20.01 35.0699C21.24 35.0699 22.26 36.0899 22.26 37.3199C22.26 39.9299 24.2401 42.0599 26.6701 42.0599H27.7501V31.9199L23.22 30.3C20.88 29.49 17.7301 27.75 17.7301 22.3799C17.7301 17.7599 21.36 14.0399 25.8001 14.0399H27.7501V12.2999C27.7501 11.07 28.7701 10.05 30 10.05C31.23 10.05 32.25 11.07 32.25 12.2999V14.0399H33.33C38.25 14.0399 42.2399 18.1799 42.2399 23.2799C42.2399 24.51 41.22 25.53 39.99 25.53C38.76 25.53 37.74 24.51 37.74 23.2799C37.74 20.6699 35.76 18.5399 33.33 18.5399H32.25V28.68L36.78 30.3Z" fill="#0B8A2F"/>
<path d="M22.2654 22.4089C22.2654 25.0188 23.1953 25.5288 24.7254 26.0688L27.7554 27.1188V18.5389H25.8054C23.8554 18.5389 22.2654 20.2789 22.2654 22.4089Z" fill="#0B8A2F"/>
</svg>
