<svg width="22" height="22" viewBox="0 0 22 22" fill="none" xmlns="http://www.w3.org/2000/svg">
<path d="M8.7467 9.30891C8.7467 9.88144 8.90574 9.96626 9.26622 10.0935L9.80695 10.2843V8.48192H9.48887C9.08598 8.48192 8.7467 8.853 8.7467 9.30891Z" fill="white"/>
<path d="M11.3973 14.3141H11.7154C12.1289 14.3141 12.4576 13.943 12.4576 13.4871C12.4576 12.9146 12.2985 12.8298 11.9381 12.7025L11.3973 12.5117V14.3141Z" fill="white"/>
<path d="M18.6388 4.4848L16.4653 6.6583C16.3063 6.81734 16.1048 6.89155 15.9034 6.89155C15.7019 6.89155 15.5005 6.81734 15.3414 6.6583C15.034 6.35083 15.034 5.84191 15.3414 5.53444L17.5149 3.36095C15.6489 1.77059 13.2422 0.795166 10.6022 0.795166C4.74964 0.795166 -0.000244141 5.54505 -0.000244141 11.3976C-0.000244141 17.2501 4.74964 22 10.6022 22C16.4547 22 21.2046 17.2501 21.2046 11.3976C21.2046 8.75758 20.2292 6.35083 18.6388 4.4848ZM12.4576 11.2067C13.1361 11.4506 14.0479 11.9383 14.0479 13.4969C14.0479 14.8222 12.9983 15.9142 11.7154 15.9142H11.3973V16.1793C11.3973 16.614 11.0369 16.9744 10.6022 16.9744C10.1675 16.9744 9.80698 16.614 9.80698 16.1793V15.9142H9.72217C8.31205 15.9142 7.15638 14.7267 7.15638 13.2636C7.15638 12.8183 7.51686 12.4578 7.95156 12.4578C8.38626 12.4578 8.74674 12.8183 8.74674 13.253C8.74674 13.8361 9.18144 14.3132 9.72217 14.3132H9.80698V11.9595L8.74674 11.5884C8.06819 11.3446 7.15638 10.8569 7.15638 9.2983C7.15638 7.973 8.20602 6.88095 9.48891 6.88095H9.80698V6.62649C9.80698 6.19179 10.1675 5.83131 10.6022 5.83131C11.0369 5.83131 11.3973 6.19179 11.3973 6.62649V6.89155H11.4822C12.8923 6.89155 14.0479 8.07902 14.0479 9.54215C14.0479 9.97685 13.6875 10.3373 13.2528 10.3373C12.8181 10.3373 12.4576 9.97685 12.4576 9.54215C12.4576 8.95902 12.0229 8.48191 11.4822 8.48191H11.3973V10.8356L12.4576 11.2067Z" fill="white"/>
<path d="M21.9362 0.487711C21.8513 0.296867 21.7029 0.137831 21.5015 0.053012C21.406 0.0212048 21.3106 0 21.2046 0H16.9636C16.5289 0 16.1685 0.360482 16.1685 0.795181C16.1685 1.22988 16.5289 1.59036 16.9636 1.59036H19.2856L17.515 3.36096C17.9179 3.71084 18.2889 4.08193 18.6388 4.48482L20.4094 2.71422V5.03614C20.4094 5.47084 20.7699 5.83132 21.2046 5.83132C21.6393 5.83132 21.9998 5.47084 21.9998 5.03614V0.795181C21.9998 0.689157 21.9786 0.593735 21.9362 0.487711Z" fill="white"/>
</svg>
