<svg width="344" height="345" viewBox="0 0 344 345" fill="none" xmlns="http://www.w3.org/2000/svg">
<ellipse cx="172" cy="172.5" rx="172" ry="172.5" fill="white"/>
<ellipse cx="198" cy="110" rx="37" ry="38" fill="#FFE3B3"/>
<path d="M258.296 213.912C260.981 239.985 243.741 263.123 219.791 265.592C195.84 268.061 179.579 246.805 167.561 223.265C158.423 205.365 78.1579 101.476 209.74 167.971C234.634 180.551 254.833 180.268 258.296 213.912Z" fill="#64DCB9"/>
<path d="M60.5737 206.014C58.967 227.711 73.3286 246.462 92.6513 247.894C117.584 249.743 120.246 231.708 132.919 211.378C199.905 103.916 113.039 160.18 98.7381 165.695C79.9304 172.949 62.1803 184.317 60.5737 206.014Z" fill="#33BE5B"/>
</svg>
